<?xml version="1.0" encoding="UTF-8"?>
<!DOCTYPE svg PUBLIC "-//W3C//DTD SVG 1.1//EN" "http://www.w3.org/Graphics/SVG/1.1/DTD/svg11.dtd">
<svg xmlns="http://www.w3.org/2000/svg" version="1.1" width="257px" height="257px" style="shape-rendering:geometricPrecision; text-rendering:geometricPrecision; image-rendering:optimizeQuality; fill-rule:evenodd; clip-rule:evenodd" xmlns:xlink="http://www.w3.org/1999/xlink">
<g><path style="opacity:0.93" fill="#fe7843" d="M 86.5,-0.5 C 96.1667,-0.5 105.833,-0.5 115.5,-0.5C 170.114,11.4612 199.447,45.4612 203.5,101.5C 201.516,124.121 194.183,144.788 181.5,163.5C 178.797,162.487 176.464,160.987 174.5,159C 180.962,146.911 186.462,134.411 191,121.5C 198.95,78.5742 184.783,45.0742 148.5,21C 107.403,-0.0165958 69.5692,4.81674 35,35.5C 31.7913,33.9761 29.7913,31.6428 29,28.5C 45.1716,12.831 64.3383,3.1643 86.5,-0.5 Z"/></g>
<g><path style="opacity:0.93" fill="#fe7843" d="M 256.5,204.5 C 256.5,206.167 256.5,207.833 256.5,209.5C 250.577,221.933 241.577,231.766 229.5,239C 214.66,248.332 198.66,254.166 181.5,256.5C 173.833,256.5 166.167,256.5 158.5,256.5C 96.1509,248.62 48.6509,217.953 16,164.5C 7.5568,148.672 2.0568,132.005 -0.5,114.5C -0.5,105.5 -0.5,96.5 -0.5,87.5C 1.9666,72.61 7.13327,58.61 15,45.5C 17.7039,41.4197 20.8706,37.753 24.5,34.5C 27.4196,36.2219 29.253,38.5553 30,41.5C 7.26426,71.2604 2.26426,103.927 15,139.5C 36.928,190.42 74.428,224.254 127.5,241C 162.905,253.101 196.238,249.101 227.5,229C 235.954,223.216 242.621,215.883 247.5,207C 247,206.5 246.5,206 246,205.5C 230.324,220.948 211.49,228.115 189.5,227C 172.257,223.59 163.591,213.09 163.5,195.5C 164.106,184.69 167.106,174.69 172.5,165.5C 174.385,166.609 176.385,167.443 178.5,168C 179.022,168.561 179.355,169.228 179.5,170C 176.934,176.363 174.768,182.863 173,189.5C 170.887,207.633 178.887,217.299 197,218.5C 206.03,217.823 214.53,215.323 222.5,211C 229.167,206.333 235.833,201.667 242.5,197C 249.361,195.595 254.027,198.095 256.5,204.5 Z M 96.5,181.5 C 99.3553,180.197 102.355,180.197 105.5,181.5C 104.208,183.667 103.375,186 103,188.5C 100.6,186.271 98.433,183.937 96.5,181.5 Z"/></g>
<g><path style="opacity:0.936" fill="#fe7843" d="M 92.5,41.5 C 118.218,39.2231 138.385,48.5564 153,69.5C 161.315,84.0368 164.481,99.7035 162.5,116.5C 167.347,139.661 158.68,154.828 136.5,162C 133.436,172.063 126.769,178.396 116.5,181C 112.971,185.585 111.471,190.752 112,196.5C 118.181,202.176 125.347,206.176 133.5,208.5C 134.871,211.98 134.205,214.98 131.5,217.5C 111.126,211.146 95.4592,198.813 84.5,180.5C 74.8378,178.171 68.8378,172.171 66.5,162.5C 58.7951,159.901 51.9618,155.901 46,150.5C 43.1901,146.547 41.1901,142.213 40,137.5C 39.3333,123.833 39.3333,110.167 40,96.5C 44.7792,65.8899 62.2792,47.5566 92.5,41.5 Z M 93.5,50.5 C 123.611,49.5507 143.278,63.3841 152.5,92C 152.333,92.5 152.167,93 152,93.5C 137.93,87.3015 127.93,91.3015 122,105.5C 118.434,122.744 125.1,133.078 142,136.5C 145.955,136.005 149.622,134.671 153,132.5C 153.281,136.989 151.948,140.989 149,144.5C 142.358,149.239 135.191,153.072 127.5,156C 127.146,163.054 123.813,168.054 117.5,171C 106.5,171.667 95.5,171.667 84.5,171C 78.7596,168.356 75.9262,163.856 76,157.5C 70.1934,153.68 64.0267,150.513 57.5,148C 52.1413,144.109 49.3079,138.942 49,132.5C 67.4024,139.868 78.2357,133.534 81.5,113.5C 80.3278,97.1527 71.6612,89.6527 55.5,91C 53.481,91.4497 51.6477,92.283 50,93.5C 55.6804,70.3199 70.1804,55.9866 93.5,50.5 Z M 57.5,99.5 C 69.2009,100.703 73.7009,107.036 71,118.5C 68.4508,125.358 63.6174,127.858 56.5,126C 47.5808,119.393 46.4142,111.559 53,102.5C 54.6516,101.601 56.1516,100.601 57.5,99.5 Z M 138.5,99.5 C 146.029,99.0086 150.862,102.342 153,109.5C 154.253,121.244 149.086,126.744 137.5,126C 130.028,120.227 128.528,113.06 133,104.5C 134.73,102.598 136.563,100.931 138.5,99.5 Z M 96.5,181.5 C 98.433,183.937 100.6,186.271 103,188.5C 103.375,186 104.208,183.667 105.5,181.5C 102.355,180.197 99.3553,180.197 96.5,181.5 Z"/></g>
<g><path style="opacity:0.912" fill="#fe7843" d="M 96.5,125.5 C 99.5,125.5 102.5,125.5 105.5,125.5C 105.5,131.5 105.5,137.5 105.5,143.5C 102.5,143.5 99.5,143.5 96.5,143.5C 96.5,137.5 96.5,131.5 96.5,125.5 Z"/></g>
</svg>
